<svg width="24" height="24" viewBox="0 0 24 24" fill="none" xmlns="http://www.w3.org/2000/svg">
<g clip-path="url(#clip0_21_37796)">
<path d="M12 17.25C14.0156 17.25 15.4219 16.2656 16.2656 15.2813C16.5469 14.9531 17.0156 14.9531 17.3438 15.1875C17.6719 15.4688 17.6719 15.9375 17.4375 16.2656C16.3594 17.4844 14.5781 18.75 12 18.75C9.375 18.75 7.59375 17.4844 6.51563 16.2656C6.28125 15.9375 6.28125 15.4688 6.60938 15.1875C6.9375 14.9531 7.40625 14.9531 7.6875 15.2813C8.53125 16.2656 9.9375 17.25 12 17.25ZM9.375 9.75C9.375 10.4063 8.85938 10.875 8.25 10.875C7.64063 10.875 7.125 10.4063 7.125 9.75C7.125 9.14063 7.64063 8.625 8.25 8.625C8.85938 8.625 9.375 9.14063 9.375 9.75ZM14.625 9.75C14.625 9.14063 15.1406 8.625 15.75 8.625C16.3594 8.625 16.875 9.14063 16.875 9.75C16.875 10.4063 16.3594 10.875 15.75 10.875C15.1406 10.875 14.625 10.4063 14.625 9.75ZM24 12C24 18.6563 18.6094 24 12 24C5.34375 24 0 18.6563 0 12C0 5.39063 5.34375 0 12 0C18.6094 0 24 5.39063 24 12ZM12 1.5C6.1875 1.5 1.5 6.23438 1.5 12C1.5 17.8125 6.1875 22.5 12 22.5C17.7656 22.5 22.5 17.8125 22.5 12C22.5 6.23438 17.7656 1.5 12 1.5Z" fill="black"/>
</g>
<defs>
<clipPath id="clip0_21_37796">
<rect width="24" height="24" fill="white"/>
</clipPath>
</defs>
</svg>
