<svg width="32" height="33" viewBox="0 0 32 33" fill="none" xmlns="http://www.w3.org/2000/svg">
<g clip-path="url(#clip0_7522_2238)">
<path fill-rule="evenodd" clip-rule="evenodd" d="M30.86 13.9943C31.6052 15.062 32.0033 16.3334 32 17.6353C31.9936 18.9426 31.5882 20.2167 30.838 21.2873C30.0894 22.356 29.0312 23.1695 27.806 23.6184C28.1629 24.5988 28.1929 25.6684 27.8916 26.6674C27.5902 27.6663 26.9736 28.5409 26.134 29.1604C25.295 29.777 24.2778 30.1033 23.2366 30.09C22.1955 30.0766 21.187 29.7243 20.364 29.0863C19.2541 30.6427 17.6783 31.8061 15.864 32.4083C14.0515 33.0098 12.0945 33.0178 10.277 32.4314C8.45799 31.8434 6.87298 30.6922 5.75104 29.1443C4.62651 27.5937 4.02194 25.7268 4.02404 23.8113C4.02379 23.2326 4.07735 22.6551 4.18404 22.0863C2.9552 21.6459 1.89335 20.835 1.14504 19.7654C0.39516 18.6933 -0.00478353 17.4156 4.31788e-05 16.1073C0.00682072 14.8 0.412573 13.5259 1.16304 12.4553C1.9127 11.3866 2.97195 10.5734 4.19804 10.1253C3.83609 9.14439 3.80204 8.07251 4.10098 7.07055C4.39993 6.06859 5.01576 5.19061 5.85604 4.56835C6.69557 3.94877 7.71447 3.62032 8.7578 3.63295C9.80112 3.64559 10.8118 3.99862 11.636 4.63835C12.8377 2.96044 14.5774 1.74438 16.566 1.19235C18.5531 0.641815 20.6689 0.789716 22.56 1.61135C24.4535 2.43464 26.0085 3.88063 26.967 5.70935C27.9275 7.54069 28.2354 9.64458 27.84 11.6743C29.062 12.1175 30.1169 12.9279 30.86 13.9943ZM12.58 14.6523L19.582 17.8633L26.648 11.6503C26.7504 11.1377 26.8013 10.6161 26.8 10.0933C26.8008 8.40136 26.2612 6.75334 25.26 5.38935C24.2612 4.02782 22.8523 3.02229 21.24 2.52035C19.6293 2.01975 17.9004 2.0499 16.308 2.60635C14.7135 3.16382 13.3396 4.21771 12.388 5.61335L11.214 11.7313L12.581 14.6514L12.58 14.6523ZM5.33304 22.0933C5.11173 23.1824 5.12081 24.3058 5.35968 25.3911C5.59856 26.4765 6.06194 27.4998 6.72004 28.3953C7.72432 29.7611 9.14043 30.7685 10.76 31.2693C12.3777 31.7689 14.1132 31.7349 15.71 31.1723C17.3093 30.6086 18.6854 29.5465 19.636 28.1423L20.802 22.0403L19.247 19.0553L12.217 15.8443L5.33204 22.0923L5.33304 22.0933ZM10.088 11.0694L5.28804 9.93235L5.29004 9.93035C5.01232 9.1593 4.98993 8.31938 5.22618 7.53463C5.46244 6.74989 5.9448 6.06192 6.60204 5.57235C7.25933 5.08523 8.05676 4.82419 8.87487 4.82834C9.69298 4.83248 10.4877 5.10159 11.14 5.59535L10.088 11.0694ZM4.87204 11.0793C3.83333 11.4234 2.92676 12.0809 2.27704 12.9613C1.62569 13.8433 1.2625 14.9048 1.23708 16.0009C1.21167 17.097 1.52527 18.1742 2.13504 19.0853C2.74404 19.9953 3.61904 20.6953 4.64004 21.0853L11.373 14.9844L10.138 12.3343L4.87204 11.0793ZM23.158 28.9273C22.3305 28.9259 21.5268 28.6498 20.873 28.1423L21.91 22.6883L26.71 23.8133C26.9197 24.3877 26.9882 25.004 26.9097 25.6104C26.8312 26.2167 26.608 26.7953 26.259 27.2973C25.9119 27.7989 25.4486 28.2091 24.9086 28.4929C24.3686 28.7768 23.7681 28.9258 23.158 28.9273ZM21.848 21.4283L27.128 22.6663C28.1827 22.3095 29.0995 21.6319 29.75 20.7283C30.4021 19.8234 30.7562 18.7378 30.763 17.6223C30.7628 16.5474 30.4364 15.4979 29.827 14.6123C29.2187 13.728 28.3554 13.0499 27.352 12.6684L20.448 18.7383L21.848 21.4283Z" fill="white"/>
<path d="M12.5799 14.6524L19.5819 17.8634L26.6479 11.6504C26.7502 11.1377 26.8011 10.6161 26.7999 10.0934C26.8006 8.40137 26.2611 6.75335 25.2599 5.38936C24.2611 4.02783 22.8521 3.0223 21.2399 2.52036C19.6291 2.01976 17.9002 2.04991 16.3079 2.60636C14.7133 3.16383 13.3395 4.21772 12.3879 5.61336L11.2139 11.7314L12.5809 14.6514L12.5799 14.6524Z" fill="#FEC514"/>
<path d="M5.33334 22.0934C5.11203 23.1824 5.1211 24.3058 5.35998 25.3911C5.59885 26.4765 6.06224 27.4998 6.72034 28.3954C7.72461 29.7611 9.14073 30.7686 10.7603 31.2694C12.378 31.769 14.1135 31.7349 15.7103 31.1724C17.3096 30.6086 18.6857 29.5466 19.6363 28.1424L20.8023 22.0404L19.2473 19.0554L12.2173 15.8444L5.33234 22.0924L5.33334 22.0934Z" fill="#00BFB3"/>
<path d="M5.28848 9.93237L10.0885 11.0694L11.1405 5.59537C10.4882 5.10161 9.69342 4.8325 8.87531 4.82836C8.0572 4.82421 7.25977 5.08525 6.60248 5.57237C5.94524 6.06194 5.46287 6.74991 5.22662 7.53465C4.99037 8.3194 5.01276 9.15932 5.29048 9.93037" fill="#F04E98"/>
<path d="M4.87174 11.0793C3.83304 11.4234 2.92646 12.0809 2.27674 12.9613C1.62539 13.8433 1.2622 14.9048 1.23678 16.0009C1.21137 17.097 1.52497 18.1742 2.13474 19.0853C2.74374 19.9953 3.61874 20.6953 4.63974 21.0853L11.3727 14.9843L10.1377 12.3343L4.87174 11.0793Z" fill="#1BA9F5"/>
<path d="M20.873 28.1424C21.5268 28.6498 22.3305 28.9259 23.158 28.9274C23.7681 28.9258 24.3686 28.7768 24.9086 28.4929C25.4486 28.2091 25.9119 27.7989 26.259 27.2974C26.608 26.7953 26.8312 26.2167 26.9097 25.6104C26.9882 25.004 26.9197 24.3877 26.71 23.8134L21.91 22.6884L20.873 28.1424Z" fill="#93C90E"/>
<path d="M21.8482 21.4284L27.1282 22.6664C28.1829 22.3095 29.0997 21.6319 29.7502 20.7284C30.4023 19.8234 30.7564 18.7378 30.7632 17.6224C30.763 16.5474 30.4366 15.4979 29.8272 14.6124C29.2189 13.728 28.3556 13.0499 27.3522 12.6684L20.4482 18.7384L21.8482 21.4284Z" fill="#0077CC"/>
</g>
<defs>
<clipPath id="clip0_7522_2238">
<rect width="32" height="32" fill="white" transform="translate(0 0.865356)"/>
</clipPath>
</defs>
</svg>
