<svg width="24" height="25" viewBox="0 0 24 25" fill="none" xmlns="http://www.w3.org/2000/svg">
<path d="M9.663 17.8654H14.336M12 3.86536V4.86536M18.364 6.50136L17.657 7.20836M21 12.8654H20M4 12.8654H3M6.343 7.20836L5.636 6.50136M8.464 16.4014C7.76487 15.702 7.2888 14.8111 7.09598 13.8413C6.90316 12.8714 7.00225 11.8661 7.38073 10.9526C7.75921 10.039 8.40007 9.2582 9.22229 8.70885C10.0445 8.1595 11.0111 7.86629 12 7.86629C12.9889 7.86629 13.9555 8.1595 14.7777 8.70885C15.5999 9.2582 16.2408 10.039 16.6193 10.9526C16.9977 11.8661 17.0968 12.8714 16.904 13.8413C16.7112 14.8111 16.2351 15.702 15.536 16.4014L14.988 16.9484C14.6747 17.2617 14.4262 17.6337 14.2567 18.0431C14.0872 18.4525 13.9999 18.8913 14 19.3344V19.8654C14 20.3958 13.7893 20.9045 13.4142 21.2796C13.0391 21.6546 12.5304 21.8654 12 21.8654C11.4696 21.8654 10.9609 21.6546 10.5858 21.2796C10.2107 20.9045 10 20.3958 10 19.8654V19.3344C10 18.4394 9.644 17.5804 9.012 16.9484L8.464 16.4014Z" stroke="#A1A1AA" stroke-width="2" stroke-linecap="round" stroke-linejoin="round"/>
</svg>
