<svg width="24" height="24" viewBox="0 0 24 24" fill="none" xmlns="http://www.w3.org/2000/svg">
<g clip-path="url(#clip0_21_37793)">
<path d="M7.5 4.5C7.5 2.01563 9.46875 0 12 0C14.4844 0 16.5 2.01563 16.5 4.5V4.6875C16.5 5.4375 15.8906 6 15.1406 6H8.8125C8.0625 6 7.5 5.4375 7.5 4.6875V4.5ZM9 4.5H15C15 2.85938 13.6406 1.5 12 1.5C10.3125 1.5 9 2.85938 9 4.5ZM1.6875 4.73438C1.96875 4.45313 2.48438 4.45313 2.76563 4.73438L6.46875 8.4375C7.26563 7.875 8.29688 7.5 9.375 7.5H14.625C15.6563 7.5 16.6875 7.875 17.4844 8.4375L21.1875 4.73438C21.4688 4.45313 21.9844 4.45313 22.2656 4.73438C22.5469 5.01563 22.5469 5.53125 22.2656 5.8125L18.5156 9.51563C19.125 10.3125 19.5 11.3438 19.5 12.375V12.75H23.25C23.625 12.75 24 13.125 24 13.5C24 13.9219 23.625 14.25 23.25 14.25H19.5V15C19.5 16.4531 19.0781 17.7656 18.4219 18.8906L22.2656 22.7344C22.5469 23.0156 22.5469 23.5313 22.2656 23.8125C21.9844 24.0938 21.4688 24.0938 21.1875 23.8125L17.4844 20.1094C16.125 21.6094 14.1563 22.5 12 22.5C9.79688 22.5 7.82813 21.6094 6.46875 20.1094L2.76563 23.8125C2.48438 24.0938 1.96875 24.0938 1.6875 23.8125C1.40625 23.5313 1.40625 23.0156 1.6875 22.7344L5.53125 18.8906C4.875 17.7656 4.5 16.4531 4.5 15V14.25H0.75C0.328125 14.25 0 13.9219 0 13.5C0 13.125 0.328125 12.75 0.75 12.75H4.5V12.375C4.5 11.3438 4.82813 10.3125 5.4375 9.51563L1.6875 5.8125C1.40625 5.53125 1.40625 5.01563 1.6875 4.73438ZM6 15C6 18.0938 8.25 20.625 11.25 20.9531V12C11.25 11.625 11.5781 11.25 12 11.25C12.375 11.25 12.75 11.625 12.75 12V20.9531C15.7031 20.625 18 18.0938 18 15V12.375C18 10.5469 16.4531 9 14.625 9H9.375C7.5 9 6 10.5469 6 12.375V15Z" fill="black"/>
</g>
<defs>
<clipPath id="clip0_21_37793">
<rect width="24" height="24" fill="white"/>
</clipPath>
</defs>
</svg>
