<svg width="20" height="21" viewBox="0 0 20 21" fill="none" xmlns="http://www.w3.org/2000/svg">
<path d="M10.8942 3.41833C10.8111 3.25245 10.6834 3.11297 10.5255 3.01549C10.3676 2.91802 10.1857 2.86639 10.0002 2.86639C9.81464 2.86639 9.63275 2.91802 9.47487 3.01549C9.31698 3.11297 9.18933 3.25245 9.10619 3.41833L2.10619 17.4183C2.01933 17.5919 1.98487 17.787 2.00702 17.9799C2.02916 18.1727 2.10694 18.3549 2.23088 18.5043C2.35482 18.6537 2.51956 18.7638 2.70499 18.8211C2.89043 18.8785 3.08855 18.8806 3.27519 18.8273L8.27519 17.3983C8.48417 17.3386 8.66798 17.2123 8.79879 17.0387C8.92961 16.8652 9.00031 16.6537 9.00019 16.4363V11.8653C9.00019 11.6001 9.10555 11.3458 9.29308 11.1582C9.48062 10.9707 9.73497 10.8653 10.0002 10.8653C10.2654 10.8653 10.5198 10.9707 10.7073 11.1582C10.8948 11.3458 11.0002 11.6001 11.0002 11.8653V16.4363C11.0001 16.6537 11.0708 16.8652 11.2016 17.0387C11.3324 17.2123 11.5162 17.3386 11.7252 17.3983L16.7252 18.8263C16.9118 18.8798 17.1099 18.8777 17.2953 18.8205C17.4808 18.7633 17.6456 18.6533 17.7696 18.5041C17.8936 18.3548 17.9715 18.1727 17.9938 17.9799C18.0162 17.7871 17.9819 17.592 17.8952 17.4183L10.8952 3.41833H10.8942Z" fill="white"/>
</svg>
